<svg xmlns="http://www.w3.org/2000/svg" width="79" height="79" fill="none" viewBox="0 0 79 79"><path fill="#F3F1F8" d="M40.0502 5L7 16.502L12.2229 59.3254L40.085 74.4698L68.0908 59.1201L73.3121 16.2983L40.0502 5Z"/><path fill="#A377FF" d="M69.8667 18.4629L40.1558 8.37083V70.8305L65.1522 57.1291L69.8667 18.4629Z"/><path fill="#8B5CEE" d="M40.0642 8.33928L10.4448 18.6476L15.1609 57.3281L40.08 70.8716L40.1574 70.8305V8.37086L40.0642 8.33928Z"/><path fill="#fff" d="M40.1558 11.3091V26.3209L53.6992 55.5235H60.6604L40.1558 11.3091Z"/><path fill="#fff" d="M19.6514 55.5235H26.6126L40.156 26.3209V11.3091L19.6514 55.5235Z"/><path fill="#fff" d="M40.1558 39.7349H49.6289V46.0503H40.1558V39.7349Z"/><path fill="#fff" d="M30.6826 39.7349H40.1558V46.0503H30.6826V39.7349Z"/></svg>